<svg viewBox="0 0 1887 337" version="1" xmlns="http://www.w3.org/2000/svg"><g fill="none"><g transform="rotate(-15 380 47)"><mask id="a" fill="#fff"><rect width="385" height="245" rx="8"/></mask><rect width="385" height="245" rx="8" fill="#00AD00"/><g mask="url(#a)"><rect width="385" height="245" rx="8" stroke="#fff" stroke-width="24"/></g></g><g fill="#fff"><path d="M298 32l67-18 18 66-42-24-43-24z"/><path d="M298 32l67-18 18 66-42-24-43-24z"/></g><g fill="#fff"><path d="M79 180l-4-15c6-1 11-3 15-6 5-2 8-5 11-9 2-4 3-8 3-13l15-4 31 115-20 6-22-82-29 8zM229 213c-5 1-9 0-14-3-4-3-7-7-10-14a130 130 0 0 1-13-45c0-7 1-13 3-17 2-5 6-8 11-10 7-2 14 1 19 8s10 17 13 31c4 13 5 24 4 33s-5 15-13 17zm-28-105c-14 4-23 13-26 26-2 14-2 29 3 45l7 21c3 7 7 12 12 17 4 6 9 9 16 11 6 2 13 2 21 0 7-2 13-5 18-10 4-5 7-11 8-17 1-7 2-14 1-21l-4-22c-5-17-11-30-20-40s-21-14-36-10zM261 113l60-16a200 200 0 0 0-20 73c-1 13 0 25 2 37l20-5a186 186 0 0 1-1-59 172 172 0 0 1 17-52l-4-16-78 21 4 17z"/></g><path d="M612 128a47 47 0 0 1 14 2l-3 18a61 61 0 0 0-15-1c-6 0-10 1-13 3s-6 5-7 9v44h-19v-74h17l1 12 11-10c4-2 9-3 14-3zm77 75l-1-3-1-4a25 25 0 0 1-14 8h-6l-11-1-8-5a21 21 0 0 1-7-16c0-8 3-14 9-18 5-4 14-6 26-6h10v-5c0-3-1-6-3-8-3-2-6-3-10-3l-9 2c-2 2-2 4-2 7h-19a20 20 0 0 1 8-16c2-3 6-4 9-5 4-2 9-2 14-2l12 1 10 5 7 8 2 12v31l1 10 2 7v1h-19zm-18-13a20 20 0 0 0 13-5l2-3v-13h-9l-8 1-5 2-3 4-1 5 3 6c1 2 4 3 8 3zm91-79v18h27v14h-27v32l1 7 2 4 4 2 6 1a49 49 0 0 0 9-1 132 132 0 0 0 7-1l1 13-4 2a49 49 0 0 1-12 2h-6l-12-1-8-5c-2-2-4-5-5-9-2-3-2-7-2-12v-34h-17v-14h17v-18h19zm95 92l-1-3-1-4a25 25 0 0 1-14 8h-6l-11-1-8-5a21 21 0 0 1-7-16c0-8 3-14 9-18s14-6 26-6h10v-5c0-3-1-6-3-8s-6-3-10-3l-9 2-2 7h-19a20 20 0 0 1 8-16c3-3 6-4 10-5 4-2 8-2 13-2l12 1 10 5 7 8c2 4 2 7 2 12v31l1 10 2 7v1h-19zm-18-13a20 20 0 0 0 13-5l2-3v-13h-9l-8 1-5 2-3 4-1 5 3 6c2 2 4 3 8 3zm84-18l-9 8v23h-19V98h19v60l6-7 20-22h23l-28 31 32 43h-23l-21-31zm61-43h40v59h20v15h-60v-15h21v-43h-21v-16zm20-19l1-4 2-3 3-2 5-1c3 0 6 1 8 3s3 4 3 7-1 5-3 7-5 3-8 3l-5-1-3-2-2-3-1-4zm63-12h41v90h22v15h-63v-15h22v-74h-22V98zm78 67c0-5 0-10 2-15 1-4 4-8 7-12 3-3 6-6 11-7a36 36 0 0 1 30 0c4 1 7 4 10 7 3 4 6 8 7 12 2 5 2 10 2 15v2c0 5 0 10-2 15-1 4-4 8-7 12-3 3-6 6-11 8-4 2-9 2-14 2-6 0-11 0-15-2a32 32 0 0 1-18-20c-2-5-2-10-2-15v-2zm19 2l1 9 2 7 5 4c2 2 5 2 8 2 2 0 5 0 7-2l5-4 2-7 1-9v-2l-1-8-2-7-5-5-8-2-7 2-5 5-2 7-1 8v2zm79-38l1 9 5-8 10-2c6 0 9 2 11 8l6-6c2-2 5-2 8-2l6 1 5 4 4 7 1 10v53h-17v-53l-1-3-1-2-2-2h-2l-3 1c-1 1-2 1-2 3v56h-17v-53-3l-2-3-1-1h-2l-4 1-2 4v55h-17v-74h16zm108 75l-15-2c-5-2-9-5-12-8a34 34 0 0 1-11-25v-3c0-6 1-11 3-16 2-4 4-8 8-12 3-3 6-6 11-8l14-2 14 2a32 32 0 0 1 17 19l3 15v8h-50l2 7a20 20 0 0 0 10 9l7 1a28 28 0 0 0 16-5l4-3 9 10-4 5-7 4a44 44 0 0 1-19 4zm-2-61a15 15 0 0 0-11 4l-3 5-2 7h31v-1l-1-6a13 13 0 0 0-8-8l-6-1zm85-32v18h28v14h-28v32l1 7 3 4 4 2 5 1a49 49 0 0 0 9-1 133 133 0 0 0 7-1l2 13-4 2a49 49 0 0 1-12 2h-7l-11-1-8-5c-3-2-4-5-6-9l-2-12v-34h-17v-14h17v-18h19zm103 17a47 47 0 0 1 14 2l-3 18a61 61 0 0 0-15-1c-6 0-10 1-13 3s-6 5-7 9v44h-19v-74h17l1 12 11-10c4-2 9-3 14-3zm36 1h40v59h20v15h-60v-15h21v-43h-21v-16zm19-19l1-4 2-3 4-2 4-1c4 0 6 1 8 3s3 4 3 7-1 5-3 7-4 3-8 3l-4-1-4-2-2-3-1-4zm79 82l1-5 2-4 5-3 5-1 6 1 4 3 2 4 1 5-1 5a11 11 0 0 1-6 6l-6 1-5-1-5-2-2-4-1-5zm76-63h38v76l-2 12-6 9-10 5a49 49 0 0 1-20 2l-6-1 1-16 3 1a34 34 0 0 0 6 0h2l5-1 4-2 3-3 1-6v-60h-19v-16zm18-19v-4a10 10 0 0 1 6-5l4-1c4 0 6 1 8 3s3 4 3 7-1 5-3 7-4 3-8 3l-4-1-4-2-2-3v-4zm103 73l-1-3-3-3-5-2-9-2-12-3-9-5-6-6-2-8 2-9 6-7c3-3 7-4 10-5 4-2 9-2 14-2s9 0 14 2c4 1 7 2 10 5l7 7 2 10h-19c0-3-1-6-4-8-2-2-6-3-10-3-5 0-8 1-10 3-3 1-4 3-4 6l1 3 2 2 5 2 8 2 12 3 10 4 7 7 2 9-2 9-7 7c-3 2-6 4-11 5a53 53 0 0 1-28-1l-11-5-6-8c-2-3-2-6-2-9h18a11 11 0 0 0 5 8l5 2 6 1 11-2c2-2 4-4 4-6z" fill="currentColor"/></g></svg>